<svg xmlns="http://www.w3.org/2000/svg" width="797" height="659.21" viewBox="0 0 797 659.21"><path d="M18.94,151.21H686a110,110,0,0,1,110,110v287a110,110,0,0,1-110,110H111a110,110,0,0,1-110-110V169.15A17.94,17.94,0,0,1,18.94,151.21Z" fill="none" stroke="#fff" stroke-miterlimit="10" stroke-width="2"/><line x1="1.5" y1="256.71" x2="792.5" y2="259.71" fill="none" stroke="#fff" stroke-miterlimit="10" stroke-width="2"/><circle cx="646.5" cy="520.71" r="66.5" fill="none" stroke="#fff" stroke-miterlimit="10" stroke-width="2"/><path d="M119.85,367.87,620.51,219.06a75.75,75.75,0,0,1,12.54-2.29c25.3-2.66,59,5.51,81,29,20.61,22,23.22,49.93,27.15,90.45,1,10,1.23,18.32,1.28,24.24" transform="translate(-109.5 -215.29)" fill="none" stroke="#fff" stroke-miterlimit="10" stroke-width="2"/></svg>