<svg xmlns="http://www.w3.org/2000/svg" viewBox="0 0 850 712.21"><path d="M45.44,177.71H712.5a110,110,0,0,1,110,110v287a110,110,0,0,1-110,110h-575a110,110,0,0,1-110-110V195.65A17.94,17.94,0,0,1,45.44,177.71Z" fill="none" stroke="#000" stroke-miterlimit="10" stroke-width="55"/><line x1="28" y1="281.21" x2="823" y2="285.21" fill="none" stroke="#000" stroke-miterlimit="10" stroke-width="55"/><circle cx="673" cy="547.21" r="66.5" fill="none" stroke="#000" stroke-miterlimit="10" stroke-width="55"/><path d="M119.85,367.87,620.51,219.06a75.75,75.75,0,0,1,12.54-2.29c25.3-2.66,59,5.51,81,29,19.7,21.05,22.43,47.09,27.15,90.45,1.36,12.49,1.71,22.84,1.78,29.74" transform="translate(-83 -188.79)" fill="none" stroke="#000" stroke-miterlimit="10" stroke-width="55"/></svg>