<svg xmlns="http://www.w3.org/2000/svg" viewBox="0 0 801 663.21"><path d="M20.94,153.21H688a110,110,0,0,1,110,110v287a110,110,0,0,1-110,110H113a110,110,0,0,1-110-110V171.15A17.94,17.94,0,0,1,20.94,153.21Z" fill="none" stroke="#000" stroke-miterlimit="10" stroke-width="6"/><line x1="3.5" y1="256.71" x2="798.5" y2="260.71" fill="none" stroke="#000" stroke-miterlimit="10" stroke-width="6"/><circle cx="648.5" cy="522.71" r="66.5" fill="none" stroke="#000" stroke-miterlimit="10" stroke-width="6"/><path d="M119.85,367.87,620.51,219.06a75.75,75.75,0,0,1,12.54-2.29c25.3-2.66,59,5.51,81,29,19.7,21.05,22.43,47.09,27.15,90.45,1.36,12.49,1.71,22.84,1.78,29.74" transform="translate(-107.5 -213.29)" fill="none" stroke="#000" stroke-miterlimit="10" stroke-width="6"/></svg>